# xmcd CD database file
#
# Track frame offsets:
#	150
#	18287
#	30202
#	50795
#	69830
#	85587
#	107457
#	128410
#	143657
#	165225
#	178112
#	201050
#
# Disc length: 3161 seconds
#
# Revision: 0
# Processed by: cddbd v1.5.1PL0 Copyright (c) Steve Scherf et al.
# Submitted via: CDex 1.51
#
DISCID=850c570c
DTITLE=スランキーサイド - 壁と僕
DYEAR=1998
DGENRE=Rock
TTITLE0=告白
TTITLE1=ワスレソウナヤクソク
TTITLE2=共犯者
TTITLE3=名もなき優雅な日々
TTITLE4=ガラス玉
TTITLE5=絵
TTITLE6=不安のようなもの
TTITLE7=人間さま
TTITLE8=けむり
TTITLE9=考えろ
TTITLE10=夜の出口
TTITLE11=不思議ダナ
EXTD=YEAR: 1998
EXTT0=
EXTT1=
EXTT2=
EXTT3=
EXTT4=
EXTT5=
EXTT6=
EXTT7=
EXTT8=
EXTT9=
EXTT10=
EXTT11=
PLAYORDER=
